<?xml version='1.0' encoding='utf-8'?>
<svg xmlns="http://www.w3.org/2000/svg" width="100%" height="100%" viewBox="0 0 6887 7016" version="1.1" style="fill-rule:evenodd;clip-rule:evenodd;stroke-linejoin:round;stroke-miterlimit:2;"> <g transform="matrix(11.5682,0,0,8.33333,0,0)"> <g id="Page-11"> <rect x="0" y="0" width="595.276" height="841.89" style="fill:none;"/> <g transform="matrix(0.365782,0,0,0.507772,-216.537,-8054.32)"> <g> <g transform="matrix(0,2.92346,2.92346,0,1414.68,16888.5)"> <path d="M121.703,-121.703C113.642,-121.703 107.108,-67.215 107.108,0C107.108,67.215 113.642,121.703 121.703,121.703C129.764,121.703 136.298,67.215 136.298,0C136.298,-67.215 129.764,-121.703 121.703,-121.703" style="fill:rgb(209,211,212);fill-rule:nonzero;"/> </g> <g transform="matrix(2.92346,0,0,2.92346,1593.96,16425.7)"> <path d="M0,-41.032C0.075,-44.548 0.254,-51.968 -3.197,-60.438C-4.541,-63.734 -6.232,-66.507 -8.125,-69.215C-27.673,-97.191 -90.031,-101.445 -113.15,-71.299C-116.961,-66.329 -122.414,-56.894 -122.769,-41.032L-122.769,60.413C-113.808,50.914 -95.467,33.98 -66.882,23.253C-38.116,12.458 -13.01,13.214 0,14.504C-0.041,-10.443 -0.243,-29.622 0,-41.032" style="fill:rgb(11,50,74);fill-rule:nonzero;"/> </g> <g transform="matrix(2.92346,0,0,2.92346,1593.97,17269.1)"> <path d="M0,-173.59C-11.171,-165.058 -30.39,-152.566 -57.128,-145.029C-84.884,-137.206 -108.616,-138.141 -122.771,-139.772C-123.208,-109.67 -122.771,-84.282 -122.771,-64.343C-122.771,-42.861 -115.726,-29.629 -103.883,-19.044C-84.625,-1.833 -45.703,0 -21.647,-19.684C-18.917,-21.918 -2.96,-34.976 -0.125,-55.945C0.366,-59.581 0.356,-62.665 0.248,-64.836C0.166,-101.087 0.083,-137.339 0,-173.59" style="fill:rgb(11,50,74);fill-rule:nonzero;"/> </g> <g transform="matrix(2.92346,0,0,2.92346,1637.11,16333.4)"> <path d="M0,121.348C-0.053,132.396 -0.105,143.443 -0.158,154.49C2.238,154.703 25.354,156.405 38.157,139.84C42.26,134.533 44.073,128.939 44.919,124.739C54.159,129.023 67.328,133.857 83.686,136.009C97.329,137.803 91.613,134.893 125.381,134.881C130.948,134.879 138.718,134.956 143.862,129.697C146.911,126.58 147.884,122.784 148.37,120.231C154.367,88.767 140.373,40.867 140.373,40.867C137.933,32.513 134.354,20.942 129.458,7.235C130.315,4.295 130.797,1.195 130.797,-2.022C130.797,-20.266 116.007,-35.057 97.762,-35.057C79.517,-35.057 64.727,-20.266 64.727,-2.022C64.727,16.223 79.517,31.014 97.762,31.014C104.654,31.014 111.049,28.899 116.344,25.288C118.149,33.673 119.583,45.475 117.718,59.378C115.991,72.253 112.034,82.458 108.702,89.354C104.69,85.526 96.207,78.533 83.46,75.605C76.963,74.112 71.245,74.11 67.007,74.478C63.792,70.51 53.42,58.738 36.129,55.095C25.113,52.775 15.642,54.669 12.013,55.546C7.07,56.74 3.104,58.425 0.293,59.828C0.269,64.86 0.245,69.892 0.221,74.924C-17.389,84.705 -34.999,94.486 -52.608,104.267C-35.072,109.961 -17.536,115.655 0,121.348" style="fill:rgb(11,50,74);fill-rule:nonzero;"/> </g> <g transform="matrix(2.92346,0,0,2.92346,1190.47,16334.2)"> <path d="M0,120.761C0.066,100.352 0.133,79.944 0.199,59.535C-2.613,58.132 -6.579,56.446 -11.521,55.252C-15.149,54.376 -24.622,52.481 -35.637,54.802C-52.929,58.445 -63.301,70.216 -66.515,74.185C-70.753,73.816 -76.471,73.819 -82.968,75.312C-95.715,78.24 -104.199,85.232 -108.211,89.06C-111.542,82.165 -115.499,71.959 -117.227,59.084C-119.091,45.181 -117.658,33.38 -115.853,24.995C-110.557,28.605 -104.162,30.72 -97.27,30.72C-79.025,30.72 -64.235,15.93 -64.235,-2.315C-64.235,-20.56 -79.025,-35.35 -97.27,-35.35C-115.515,-35.35 -130.306,-20.56 -130.306,-2.315C-130.306,0.901 -129.824,4.002 -128.966,6.942C-133.862,20.649 -137.441,32.219 -139.882,40.573C-139.882,40.573 -153.875,88.47 -147.879,119.938C-147.393,122.49 -146.42,126.287 -143.371,129.404C-138.227,134.662 -130.457,134.586 -124.89,134.587C-91.122,134.6 -96.838,137.51 -83.193,135.715C-66.836,133.563 -53.667,128.73 -44.427,124.446C-43.582,128.646 -41.768,134.239 -37.666,139.546C-24.863,156.111 -1.746,154.41 0.65,154.197C0.652,149.853 0.655,145.508 0.657,141.164C18.28,135.864 35.903,130.563 53.526,125.262C35.684,123.762 17.842,122.261 0,120.761" style="fill:rgb(11,50,74);fill-rule:nonzero;"/> </g> <g transform="matrix(0.717815,2.83397,2.83397,-0.717815,962.898,16327.3)"> <path d="M0.067,0.033C-13.763,3.56 -24.914,-3.544 -25.597,-1.877C-26.36,-0.015 -13.605,11.73 0.067,9.205C15.622,6.331 22.987,-13.281 21.626,-14.424C20.514,-15.359 14.057,-3.536 0.067,0.033" style="fill:rgb(53,100,127);fill-rule:nonzero;"/> </g> <g transform="matrix(-2.92311,0.0455036,0.0455036,2.92311,772.905,16685.7)"> <path d="M-5.754,-59.923C-4.501,-60.183 1.741,-45.92 1.468,-28.787C1.215,-12.92 -4.544,0.273 -5.754,0.019C-6.814,-0.202 -4.044,-10.676 -3.933,-28.987C-3.814,-48.572 -6.843,-59.698 -5.754,-59.923" style="fill:white;fill-rule:nonzero;"/> </g> <g transform="matrix(0.542312,2.87272,2.87272,-0.542312,1062.52,16454.2)"> <path d="M28.403,-18.856C26.888,-19.324 18.787,-6.706 19.075,8.395C19.344,22.566 26.909,34.236 28.403,33.768C29.71,33.36 25.844,23.817 25.826,7.411C25.808,-9.037 29.673,-18.464 28.403,-18.856" style="fill:rgb(251,176,64);fill-rule:nonzero;"/> </g> <g transform="matrix(-2.89402,0.413891,0.413891,2.89402,886.871,16564.6)"> <path d="M1.37,-48.054C2.582,-48.185 5.713,-37.149 5.881,-25.054C6.065,-11.788 2.65,0.219 1.37,0.082C0.622,0.003 0.61,-8.577 0.618,-25.736C0.628,-47.186 1.052,-48.02 1.37,-48.054" style="fill:rgb(53,100,127);fill-rule:nonzero;"/> </g> <g transform="matrix(-1.50504,2.50629,2.50629,1.50504,1174.09,16707.2)"> <path d="M15.661,-27.735C19.244,-27.822 23.135,-18.016 23.22,-9.531C23.307,-0.685 19.282,9.21 15.661,9.124C12.271,9.045 9.513,0.224 8.944,-6.175C8.06,-16.121 11.812,-27.642 15.661,-27.735" style="fill:rgb(53,100,127);fill-rule:nonzero;"/> </g> <g transform="matrix(0.717815,-2.83397,-2.83397,-0.717815,1864.77,16325.1)"> <path d="M-0.067,0.033C13.763,3.56 24.914,-3.544 25.597,-1.877C26.36,-0.015 13.606,11.729 -0.067,9.205C-15.622,6.331 -22.987,-13.281 -21.626,-14.425C-20.514,-15.359 -14.057,-3.535 -0.067,0.033" style="fill:rgb(53,100,127);fill-rule:nonzero;"/> </g> <g transform="matrix(-2.92311,-0.0455036,-0.0455036,2.92311,2054.76,16683.5)"> <path d="M5.753,-59.923C4.501,-60.183 -1.741,-45.92 -1.468,-28.787C-1.216,-12.92 4.544,0.273 5.753,0.019C6.813,-0.203 4.044,-10.677 3.932,-28.987C3.813,-48.572 6.842,-59.698 5.753,-59.923" style="fill:white;fill-rule:nonzero;"/> </g> <g transform="matrix(0.542312,-2.87272,-2.87272,-0.542312,1765.14,16452)"> <path d="M-28.404,-18.856C-26.889,-19.325 -18.788,-6.707 -19.075,8.396C-19.345,22.566 -26.91,34.236 -28.404,33.768C-29.711,33.359 -25.844,23.817 -25.827,7.41C-25.808,-9.038 -29.674,-18.464 -28.404,-18.856" style="fill:rgb(251,176,64);fill-rule:nonzero;"/> </g> <g transform="matrix(-2.89402,-0.413891,-0.413891,2.89402,1940.8,16562.3)"> <path d="M-1.37,-48.054C-2.582,-48.185 -5.713,-37.149 -5.881,-25.054C-6.066,-11.788 -2.651,0.218 -1.37,0.082C-0.622,0.003 -0.61,-8.577 -0.618,-25.736C-0.628,-47.186 -1.052,-48.02 -1.37,-48.054" style="fill:rgb(53,100,127);fill-rule:nonzero;"/> </g> <g transform="matrix(-1.50504,-2.50629,-2.50629,1.50504,1653.58,16705)"> <path d="M-15.661,-27.735C-19.244,-27.822 -23.135,-18.016 -23.22,-9.53C-23.307,-0.685 -19.282,9.21 -15.661,9.124C-12.271,9.045 -9.513,0.224 -8.944,-6.175C-8.06,-16.121 -11.812,-27.642 -15.661,-27.735" style="fill:rgb(53,100,127);fill-rule:nonzero;"/> </g> <g transform="matrix(2.92346,0,0,2.92346,1268.32,16949.6)"> <path d="M0,53.102C5.09,75.043 23.774,91.134 45.301,92.865C70.389,94.881 94.592,77.013 99.686,50.824L99.686,-41.779C90.407,-35.436 74.725,-26.392 53.384,-21.47C30.556,-16.206 11.34,-17.984 -0.02,-19.908C-0.013,4.429 -0.006,28.765 0,53.102" style="fill:rgb(53,100,127);fill-rule:nonzero;"/> </g> <g transform="matrix(2.92346,0,0,2.92346,1559.69,16437.9)"> <path d="M0,-55.862C-5.09,-73.192 -23.774,-85.9 -45.302,-87.267C-70.389,-88.86 -94.593,-74.747 -99.686,-54.061L-99.686,32.998C-91.682,25.756 -76.335,13.758 -53.668,6.58C-30.557,-0.737 -10.738,0.408 0.02,1.804C0.013,-17.418 0.006,-36.64 0,-55.862" style="fill:rgb(53,100,127);fill-rule:nonzero;"/> </g> <g transform="matrix(2.92346,0,0,2.92346,1235.05,16457.3)"> <path d="M0,49.598C40.923,34.295 81.846,18.992 122.769,3.689C110.635,1.923 86.002,0 57.591,10.094C26.784,21.039 8.052,40.244 0,49.598" style="fill:rgb(66,115,140);fill-rule:nonzero;"/> </g> <g transform="matrix(2.92346,0,0,2.92346,1235.05,16468.1)"> <path d="M0,45.909C40.923,30.606 81.846,15.303 122.769,0C105.674,2.891 85.513,7.618 63.556,15.495C37.816,24.729 16.568,35.795 0,45.909" style="fill:rgb(53,100,127);fill-rule:nonzero;"/> </g> <g transform="matrix(2.92346,0,0,2.92346,1235.05,16774.7)"> <path d="M0,29.342C40.923,18.069 81.847,6.796 122.771,-4.477C112.767,4.007 93.65,17.983 65.828,25.793C37.235,33.819 13.025,31.52 0,29.342" style="fill:rgb(66,115,140);fill-rule:nonzero;"/> </g> <g transform="matrix(2.92346,0,0,2.92346,1235.05,16761.6)"> <path d="M0,33.819C40.923,22.546 81.847,11.273 122.771,0C107.079,7.589 87.767,15.493 65.118,21.89C40.585,28.819 18.389,32.212 0,33.819" style="fill:rgb(53,100,127);fill-rule:nonzero;"/> </g> <g transform="matrix(-2.82599,0.748605,0.748605,2.82599,2105.11,16545.1)"> <path d="M10.295,-62.912C11.275,-62.729 8.542,-51.165 8.441,-31.601C8.332,-10.867 11.273,1.009 10.295,1.188C9.156,1.397 3.123,-14.276 3.613,-33.186C4.038,-49.561 9.218,-63.113 10.295,-62.912" style="fill:rgb(251,176,64);fill-rule:nonzero;"/> </g> <g transform="matrix(-2.82599,-0.748605,-0.748605,2.82599,721.092,16545.1)"> <path d="M-10.293,-62.912C-11.274,-62.729 -8.541,-51.165 -8.439,-31.6C-8.331,-10.867 -11.272,1.009 -10.293,1.188C-9.155,1.397 -3.122,-14.276 -3.612,-33.186C-4.036,-49.561 -9.216,-63.112 -10.293,-62.912" style="fill:rgb(251,176,64);fill-rule:nonzero;"/> </g> <g transform="matrix(0.816418,2.80715,2.80715,-0.816418,1330.17,16346)"> <path d="M44.957,-28.386C46.6,-27.801 35.502,-7.713 37.488,22.29C38.931,44.097 46.432,58.255 44.957,58.829C43.323,59.463 31.465,43.116 29.488,22.249C26.841,-5.715 43.149,-29.03 44.957,-28.386" style="fill:rgb(66,115,140);fill-rule:nonzero;"/> </g> <g transform="matrix(-0.652165,-2.84979,-2.84979,0.652165,1351.49,16788.4)"> <path d="M-37.496,-58.227C-36.075,-57.675 -47.811,-38.386 -46.304,-9.958C-45.092,12.895 -36.05,27.917 -37.496,28.531C-39.026,29.181 -51.483,13.361 -53.59,-7.416C-56.431,-35.418 -39.093,-58.847 -37.496,-58.227" style="fill:rgb(66,115,140);fill-rule:nonzero;"/> </g> <g transform="matrix(0.0290578,2.92332,2.92332,-0.0290578,1385.2,16117.3)"> <path d="M51.525,-32.059C47.694,-33.65 30.76,-14.994 29.949,7.64C29.065,32.323 47.647,53.517 51.525,51.949C54.477,50.757 47.568,36.912 47.588,10.305C47.608,-16.528 54.656,-30.758 51.525,-32.059" style="fill:rgb(66,115,140);fill-rule:nonzero;"/> </g> <g transform="matrix(-0.034036,-2.92326,-2.92326,0.034036,1384.22,17062.2)"> <path d="M-26.241,-45.919C-30.073,-47.267 -47.007,-31.286 -47.817,-11.959C-48.702,9.116 -30.12,27.152 -26.241,25.801C-23.289,24.775 -30.199,12.977 -30.178,-9.739C-30.158,-32.648 -23.11,-44.819 -26.241,-45.919" style="fill:rgb(66,115,140);fill-rule:nonzero;"/> </g> <g transform="matrix(2.92346,0,0,2.92346,1937.9,16653.3)"> <path d="M0,-16.281C-1.307,-18.303 -6.808,-26.303 -17.646,-29.281C-27.038,-31.861 -34.769,-29.113 -37.244,-28.115C-40.87,-30.809 -51.562,-38.018 -67.07,-38.341C-83.229,-38.677 -94.552,-31.328 -98.175,-28.754L-98.175,1.925C-94.469,4.375 -88.721,7.531 -81.131,9.381C-70.399,11.997 -61.357,10.692 -56.418,9.594C-50.137,11.865 -41.588,14.764 -31.278,17.69C-15.314,22.22 -10.705,22.396 -8.695,20.033C-6.302,17.218 -9.491,13.021 -9.548,5.759C-9.619,-3.356 -4.703,-10.933 0,-16.281" style="fill:rgb(53,100,127);fill-rule:nonzero;"/> </g> <g transform="matrix(2.92346,0,0,2.92346,1989.08,16685.5)"> <path d="M0,-97.713C6.359,-79.213 4.377,-64.88 2.982,-58.3C1.358,-50.637 -1.618,-36.596 -11.907,-25.277C-14.096,-22.87 -17.298,-19.835 -19.387,-14.413C-19.939,-12.98 -24.364,-1.074 -18.656,4.85C-13.683,10.013 -2.894,8.682 3.622,4.335C10.201,-0.054 14.656,-9.009 14.7,-38.061C14.726,-54.942 13.262,-78.901 6.392,-107.726C4.261,-104.389 2.131,-101.05 0,-97.713" style="fill:rgb(53,100,127);fill-rule:nonzero;"/> </g> <g transform="matrix(-2.88183,-0.491592,-0.491592,2.88183,1864.09,16697)"> <path d="M-12.678,-36.78C-13.721,-36.139 -9.418,-30.748 -8.568,-21.599C-7.398,-9.022 -13.795,-0.62 -12.678,-0.039C-11.353,0.648 -0.285,-10.037 -2.017,-21.993C-3.321,-31.001 -11.428,-37.546 -12.678,-36.78" style="fill:rgb(66,115,140);fill-rule:nonzero;"/> </g> <g transform="matrix(-2.88682,-0.461394,-0.461394,2.88682,1995.58,16669.2)"> <path d="M-2.693,-36.775C-4.137,-36.754 -5.364,-24.678 -4.96,-14.289C-4.743,-8.692 -3.901,0.296 -2.693,0.317C-1.499,0.338 -0.124,-8.399 0.072,-16.073C0.325,-25.995 -1.323,-36.795 -2.693,-36.775" style="fill:rgb(66,115,140);fill-rule:nonzero;"/> </g> <g transform="matrix(2.92346,0,0,2.92346,891.72,16653.9)"> <path d="M0,-17.257C1.652,-19.312 7.066,-25.516 16.598,-27.903C26.649,-30.421 34.726,-27.054 37.05,-25.985C41.43,-29.228 52.395,-36.43 68.245,-37.617C82.393,-38.677 93.235,-34.404 98.182,-32.082C98.168,-22.026 98.156,-11.97 98.144,-1.914C95.331,0.872 90.082,5.31 82.261,8.023C70.529,12.093 60.327,9.741 56.417,8.618C50.136,10.889 41.588,13.788 31.278,16.714C15.315,21.245 10.705,21.42 8.696,19.057C6.301,16.243 9.491,12.045 9.548,4.783C9.619,-4.332 4.704,-11.909 0,-17.257" style="fill:rgb(53,100,127);fill-rule:nonzero;"/> </g> <g transform="matrix(2.92346,0,0,2.92346,840.534,16683.3)"> <path d="M0,-97.714C-6.36,-79.214 -4.377,-64.881 -2.983,-58.301C-1.358,-50.638 1.618,-36.596 11.907,-25.278C14.096,-22.871 17.297,-19.836 19.387,-14.413C19.939,-12.98 24.364,-1.074 18.656,4.849C13.683,10.013 2.894,8.681 -3.622,4.334C-10.202,-0.055 -14.657,-9.01 -14.7,-38.062C-14.726,-54.943 -13.262,-78.902 -6.392,-107.727C-4.261,-104.389 -2.13,-101.051 0,-97.714" style="fill:rgb(53,100,127);fill-rule:nonzero;"/> </g> <g transform="matrix(-2.88184,0.491578,0.491578,2.88184,965.53,16694.8)"> <path d="M12.679,-36.78C13.721,-36.139 9.419,-30.748 8.569,-21.598C7.398,-9.022 13.796,-0.62 12.679,-0.038C11.354,0.648 0.286,-10.037 2.017,-21.993C3.321,-31.001 11.429,-37.546 12.679,-36.78" style="fill:rgb(66,115,140);fill-rule:nonzero;"/> </g> <g transform="matrix(-2.88682,0.461394,0.461394,2.88682,834.044,16667)"> <path d="M2.694,-36.775C4.138,-36.754 5.365,-24.678 4.961,-14.289C4.743,-8.692 3.902,0.296 2.694,0.317C1.499,0.338 0.126,-8.399 -0.071,-16.073C-0.324,-25.996 1.325,-36.795 2.694,-36.775" style="fill:rgb(66,115,140);fill-rule:nonzero;"/> </g> <g transform="matrix(2.92346,0,0,2.92346,1397.33,16660.6)"> <path d="M0,-8.823C42.545,-35.332 85.09,-61.841 127.636,-88.351C75.33,-61.259 23.024,-34.167 -29.282,-7.075L13.074,12.573C-29.412,34.891 -71.897,57.21 -114.383,79.528C-60.594,57.343 -6.805,35.158 46.983,12.973L0,-8.823Z" style="fill:rgb(251,176,64);fill-rule:nonzero;"/> </g> <g transform="matrix(-2.57878,1.37715,1.37715,2.57878,1642.88,16255.6)"> <path d="M16.366,-44.148C17.511,-43.526 10.194,-34.227 10.366,-19.995C10.531,-6.489 17.328,2.065 16.366,2.573C15.218,3.18 3.741,-8.068 4.32,-22.249C4.847,-35.162 15.139,-44.815 16.366,-44.148" style="fill:rgb(53,100,127);fill-rule:nonzero;"/> </g> <g transform="matrix(2.68333,1.16033,1.16033,-2.68333,1202.38,16277.1)"> <path d="M9.188,-0.627C10.334,-0.006 3.016,9.294 3.189,23.525C3.354,37.031 10.151,45.587 9.188,46.094C8.04,46.7 -3.436,35.454 -2.857,21.273C-2.331,8.359 7.961,-1.294 9.188,-0.627" style="fill:rgb(53,100,127);fill-rule:nonzero;"/> </g> </g> </g> </g> </g> </svg>